<svg xmlns="http://www.w3.org/2000/svg" viewBox="0 0 500 100">
    <path d="M146.75,27.45c0,7.16-8.84,13-13.71,15.12,4.53,0,11.21,6.14,11.21,14.58,0,13.77-22.61,26.4-35.78,26.4-4.93,0-10.12-5.94-10.12-9.45,0-6.21,17.28-16.54,25-16.54,1.49,0,3.44,1.69,3.44,2.56s-.54,1-2.22,1.22c-6.48,1-21.54,8.64-21.54,12.82,0,1.22,1,2,2.43,2,13,0,31.87-11.14,31.87-23.29a7.13,7.13,0,0,0-7.16-7c-3.71,0-8.24,2.3-9.65,2.3s-4.32-3-4.32-4.19c0-1.62,3.64-3.31,9.72-5.94,7.22-3.1,13.77-8.5,13.77-13.3,0-3.37-3.24-5.8-9.32-5.8-17.75,0-27.2,8.1-32.2,12.49a8.63,8.63,0,0,1,1,2.7c0,1-3.3,2.22-6.81,5.46C90.58,41.22,88.63,43,87.75,43c-1.08,0-3.51-2.56-3.51-4.38,0-6.42,22.61-24,42.73-24C137.43,14.62,146.75,20.83,146.75,27.45Zm-23.7-.74c0,1.62-4.86,3.91-12.15,17.41s-8,17.35-8,18.37-.47,1.28-1.15,1.28c-1.62,0-4.93-1.69-4.93-4.66s1.76-8.37,7.9-19.44c6-10.73,8.58-13.23,10-15.06.48-.6.88-1.08,1.42-1.08C117.79,23.53,123.05,25.09,123.05,26.71Z"
          style="fill:#00161e"/>
    <path d="M164.5,63.09a7,7,0,0,1-.47-2.9v-.88S159,67,154.72,67s-8.1-4.52-8.1-8.37c0-7.16,10.46-21.13,17.28-21.13,3.1,0,6.54,3,6.54,5.2A4.31,4.31,0,0,1,172,42c1.42,0,4.79,2.23,4.79,3.17s-4.12,5.94-5.74,10.94A17.72,17.72,0,0,0,170,61a1.8,1.8,0,0,0,1.89,1.69c1.42,0,6-5.47,8.78-9.32,1.15-1.62,1.48-2.16,1.82-2.16.54,0,1.62,1.62,1.62,2.63s-.27,1.83-1.69,3.65c-2.56,3.38-6.88,9.11-11.14,9.11A8.1,8.1,0,0,1,164.5,63.09ZM153,61.54a1.64,1.64,0,0,0,1.82,1.55c1.55,0,7.36-6.27,9.86-10.66a1.67,1.67,0,0,1-.41-1c0-1.14,2.7-3.37,2.7-6.54a1.61,1.61,0,0,0-1.69-1.62C162.14,43.25,153,55.94,153,61.54Z"
          style="fill:#00161e"/>
    <path d="M216.15,53.37c1.14-1.62,1.48-2.16,1.82-2.16.54,0,1.62,1.62,1.62,2.63s-.27,1.83-1.69,3.65c-2.56,3.38-7.09,10.19-11.61,10.19a4.7,4.7,0,0,1-3.24-1c-2.63,0-5.87-3.37-5.87-8.64-1.69,3.71-5.94,9.18-10,9.18s-7.9-2-7.9-8.44c0-8,10.46-21.46,15.05-21.46,5,0,8.17,2.22,8.31,5.53C203,42,210.54,25,212.43,25c2.5,0,5.07,2,5.07,3.11s-.95,1.75-2.64,4.92c-2,3.65-10.12,20.79-10.12,27.61,0,2.1.61,2.7,1.55,2.7C208.45,63.36,213.38,57.22,216.15,53.37Zm-29.71,8.24c0,.74.14,1.48,1,1.48,2.76,0,7.69-7.35,9.72-11.41,1.55-3.1,2.9-7.22,2.9-8.37s-.4-1.62-1.08-1.62C195.42,41.69,186.44,53.78,186.44,61.61Z"
          style="fill:#00161e"/>
    <path d="M235,69.37c-2.63,8.24-6.82,17.15-13.84,17.15-4.12,0-9.18-4.39-9.18-6.82,0-3.71,7.7-6.41,16.34-10.8,1.62-4.46,2.63-8.37,2.63-8.37s-5.33,6.82-9.45,6.82c-1.22,0-1.89-.81-3.1-1.08-2.1-.41-4.46-2.57-4.46-6.35,0-6.75,11.2-21.47,17.55-21.47,4.73,0,6.89,2.23,6.89,5.61,1.95.94,4,2.36,4,3.64s-2.1,3.58-3.92,8.71c-.4,1.22-1,3.85-1.82,7a54.45,54.45,0,0,0,9.58-10.06c1.15-1.62,1.49-2.16,1.83-2.16.54,0,1.62,1.62,1.62,2.63s-.27,1.83-1.69,3.65A58.56,58.56,0,0,1,235,69.37Zm-9.11,5.13c-5.13,2.77-8.17,4.59-8.17,5.74a1.26,1.26,0,0,0,1.15,1.42C221.48,81.66,223.91,78.42,225.87,74.5Zm-5.54-12.62A1.82,1.82,0,0,0,222,63.63c1.48,0,6.62-5.87,10.4-12.28a1.62,1.62,0,0,1-.41-1.08c0-1.35,2.84-4.39,2.84-5.54a1.51,1.51,0,0,0-1.69-1.42C229.65,43.25,220.33,56.21,220.33,61.88Z"
          style="fill:#00161e"/>
    <path d="M245.72,56.07c0-7,8.37-17.75,13.23-17.75,3.24,0,8.3,3,8.3,5.87,0,2.23-2,6.68-5.6,10.13-2.84,2.77-8.64,2.9-8.64,2.9a9.42,9.42,0,0,0-.14,1.55,4.48,4.48,0,0,0,4.46,4.59c4.59,0,9.92-6.14,12.69-10,1.15-1.62,1.48-2.16,1.82-2.16.54,0,1.62,1.62,1.62,2.63s-.27,1.83-1.69,3.65c-2.56,3.38-8.17,9.72-15.25,9.72A11.15,11.15,0,0,1,245.72,56.07ZM262.66,44.8c0-.41-.34-.68-.88-.68-1.55,0-8.1,8.17-8.1,9.93C256.31,54.05,262.66,47,262.66,44.8Z"
          style="fill:#00161e"/>
    <path d="M352.51,53.37c1.15-1.62,1.48-2.16,1.82-2.16.54,0,1.62,1.62,1.62,2.63s-.27,1.83-1.69,3.65c-2.56,3.38-10,12.89-16.67,12.89-4.86,0-9.11-4.72-9.11-9.51,0-10.33,13.43-26.87,13.43-30.11,0-.88-.4-1.22-.88-1.22-4.18,0-16.33,13-22.21,21.87s-6.41,13.78-8,13.78-5.27-2.5-5.27-5.27,2.7-9.05,8-18.9c5.73-10.67,10.46-17.35,10.46-20.66,0-1.28-.41-1.69-1.35-1.69-4.19,0-21,21.34-28.15,33.22-4,6.61-6.75,11.47-8.1,14.78-1.22,2.9-1.62,3.65-2.63,3.65s-5.54-2-5.54-4.12,4.73-12.42,11.41-24.84,9.92-19.58,9.92-21.13A1.59,1.59,0,0,0,298,18.61c-4.52,0-15,13.5-15,13.5a3.43,3.43,0,0,1,1.35,2.83c0,1-1.69,3-4,5.81-3.84,4.66-4.65,6.41-6.14,6.41s-4.39-3.37-4.39-4.59c.07-3.58,18-27.2,27.41-27.2,4.93,0,8.17,5,8.17,7.69,0,5-4.39,13.17-4.39,13.17s14.24-20.86,21.33-20.86a8.38,8.38,0,0,1,8.44,7.83c0,4.93-7.09,16.6-7.63,17.48,1-1.42,11.28-15.12,17.82-15.12,4.39,0,7.56,4.32,7.56,7.36,0,5.94-11.67,19.78-11.67,29.43,0,1.69.67,3.11,2.49,3.11C343.67,65.46,349.74,57.22,352.51,53.37Z"
          style="fill:#00161e"/>
    <path d="M352,56.07c0-7,8.37-17.75,13.23-17.75,3.24,0,8.31,3,8.31,5.87,0,2.23-2,6.68-5.61,10.13-2.83,2.77-8.64,2.9-8.64,2.9a10.13,10.13,0,0,0-.13,1.55,4.48,4.48,0,0,0,4.45,4.59c4.59,0,9.93-6.14,12.69-10,1.15-1.62,1.49-2.16,1.83-2.16.54,0,1.62,1.62,1.62,2.63s-.27,1.83-1.69,3.65c-2.57,3.38-8.17,9.72-15.26,9.72A11.15,11.15,0,0,1,352,56.07ZM368.92,44.8c0-.41-.34-.68-.88-.68-1.55,0-8.1,8.17-8.1,9.93C362.57,54.05,368.92,47,368.92,44.8Z"
          style="fill:#00161e"/>
    <path d="M417.86,56.21a17.5,17.5,0,0,1,.6-5.47c-.6.81-14.91,19.58-23.42,19.58-5.53,0-10.26-4.46-10.26-9.18,0-11.35,19.64-31.33,19.64-40.78,0-1.21-.67-1.82-2-1.82-6.41,0-13.77,10.8-13.77,10.8A2.85,2.85,0,0,1,390,31.5c0,1.35-2.36,3.78-4.26,6.62-2.09,3.1-3.51,5.87-4.65,5.87s-4.39-2.5-4.39-4.39c0-4.59,13.16-24.17,25.38-24.17,5.6,0,9.18,5.4,9.18,10.13,0,8-18.22,28.22-18.22,38.28,0,1.35.81,2.22,1.75,2.22,4.25,0,18.56-11.88,26-24.84,6.28-11,9.05-17,10.33-19.64.47-1,.34-2.09,1.75-2.09,1.08,0,5.74,2.36,5.74,4.32s-12.89,20-12.89,34.15c0,2,1.28,4,3.31,4,3.71,0,8.3-4.79,11.07-8.64,1.14-1.62,1.48-2.16,1.82-2.16.54,0,1.62,1.62,1.62,2.63s-.27,1.83-1.69,3.65C439.26,60.87,433.65,67,429.4,67,425.35,67,417.86,63.09,417.86,56.21Z"
          style="fill:#00161e"/>
    <path d="M447.43,35.42c.67,0,5.06,1.75,5.06,2.76s-2.63,7.16-3.11,8.17c.48-.67,5.67-8.23,9.12-8.23a7.48,7.48,0,0,1,7.22,7.56c0,8-7.36,21.26-15.46,21.26-3.31,0-6.75-2.83-6.75-2.83a78.34,78.34,0,0,0-5.06,16.4c-.2,1-.61,1.28-1.49,1.28-1.89,0-4.59-1.82-4.59-3.85s2.37-11.27,6.55-22.07,7.36-18.7,7.36-19.71C446.28,35.69,446.75,35.42,447.43,35.42ZM449.05,52a41.69,41.69,0,0,0-4.26,8.44,5.11,5.11,0,0,0,3.72,1.62c4.05,0,10.93-13.1,10.93-19.91A1.12,1.12,0,0,0,458.36,41C457.08,41,452.29,46.82,449.05,52Z"
          style="fill:#00161e"/>
    <path d="M145.94,26.41c0,7.15-8.85,13-13.71,15.12,4.53,0,11.21,6.14,11.21,14.58,0,13.77-22.61,26.4-35.78,26.4-4.93,0-10.12-6-10.12-9.46,0-6.21,17.28-16.53,25-16.53,1.49,0,3.44,1.68,3.44,2.56s-.54,1-2.22,1.22c-6.48,1-21.54,8.64-21.54,12.82,0,1.22.95,2,2.43,2,13,0,31.86-11.14,31.86-23.29a7.12,7.12,0,0,0-7.15-7c-3.71,0-8.24,2.3-9.65,2.3s-4.33-3-4.33-4.19c0-1.62,3.65-3.31,9.73-5.94,7.22-3.11,13.77-8.51,13.77-13.3,0-3.37-3.24-5.8-9.32-5.8-17.75,0-27.2,8.1-32.2,12.48a8.74,8.74,0,0,1,1,2.7c0,1-3.3,2.23-6.81,5.47C89.77,40.18,87.82,42,86.94,42c-1.08,0-3.51-2.56-3.51-4.39,0-6.41,22.61-24,42.73-24C136.62,13.58,145.94,19.79,145.94,26.41Zm-23.7-.74c0,1.62-4.86,3.91-12.15,17.41s-8,17.35-8,18.36-.47,1.29-1.15,1.29C99.29,62.73,96,61,96,58.07s1.76-8.37,7.9-19.44c6-10.74,8.58-13.23,10-15.06.47-.6.88-1.08,1.42-1.08C117,22.49,122.24,24.05,122.24,25.67Z"
          style="fill:#fff"/>
    <path d="M163.69,62.05a7,7,0,0,1-.47-2.9v-.88s-5.06,7.7-9.31,7.7-8.11-4.53-8.11-8.37c0-7.16,10.47-21.13,17.29-21.13,3.1,0,6.54,3,6.54,5.19a4.34,4.34,0,0,1,1.56-.67c1.41,0,4.79,2.23,4.79,3.17s-4.12,5.94-5.74,10.94A17.65,17.65,0,0,0,169.16,60a1.8,1.8,0,0,0,1.89,1.69c1.42,0,6-5.47,8.78-9.32,1.14-1.62,1.48-2.16,1.82-2.16.54,0,1.62,1.62,1.62,2.63s-.27,1.83-1.69,3.65c-2.56,3.37-6.88,9.11-11.14,9.11A8.1,8.1,0,0,1,163.69,62.05ZM152.22,60.5A1.64,1.64,0,0,0,154,62.05c1.55,0,7.36-6.28,9.86-10.66a1.67,1.67,0,0,1-.41-1c0-1.14,2.7-3.37,2.7-6.55a1.62,1.62,0,0,0-1.69-1.62C161.33,42.2,152.22,54.9,152.22,60.5Z"
          style="fill:#fff"/>
    <path d="M215.34,52.33c1.14-1.62,1.48-2.16,1.82-2.16.54,0,1.62,1.62,1.62,2.63s-.27,1.83-1.69,3.65c-2.56,3.37-7.09,10.19-11.61,10.19a4.7,4.7,0,0,1-3.24-1c-2.63,0-5.87-3.38-5.87-8.64-1.69,3.71-5.94,9.18-10,9.18s-7.9-2-7.9-8.44c0-8,10.46-21.47,15.05-21.47,5,0,8.17,2.23,8.3,5.54.34-.88,7.9-17.82,9.79-17.82,2.5,0,5.07,2,5.07,3.1s-.95,1.76-2.64,4.93c-2,3.65-10.12,20.79-10.12,27.61,0,2.09.61,2.7,1.55,2.7C207.64,62.32,212.57,56.18,215.34,52.33Zm-29.71,8.24c0,.74.14,1.48,1,1.48,2.76,0,7.69-7.36,9.72-11.41,1.55-3.1,2.9-7.22,2.9-8.37s-.4-1.62-1.08-1.62C194.61,40.65,185.63,52.74,185.63,60.57Z"
          style="fill:#fff"/>
    <path d="M234.17,68.33c-2.63,8.23-6.82,17.15-13.84,17.15-4.12,0-9.18-4.39-9.18-6.82,0-3.72,7.7-6.42,16.34-10.8,1.62-4.46,2.63-8.37,2.63-8.37s-5.33,6.81-9.45,6.81c-1.22,0-1.89-.81-3.11-1.08-2.09-.4-4.45-2.56-4.45-6.34,0-6.75,11.2-21.47,17.55-21.47,4.73,0,6.89,2.23,6.89,5.6,1.95,1,4,2.37,4,3.65s-2.1,3.58-3.92,8.71c-.4,1.21-1,3.85-1.82,7a54.45,54.45,0,0,0,9.58-10.06c1.15-1.62,1.49-2.16,1.83-2.16.54,0,1.62,1.62,1.62,2.63s-.27,1.83-1.69,3.65A58.56,58.56,0,0,1,234.17,68.33Zm-9.11,5.13c-5.13,2.77-8.17,4.59-8.17,5.74A1.26,1.26,0,0,0,218,80.61C220.67,80.61,223.1,77.37,225.06,73.46Zm-5.54-12.62a1.82,1.82,0,0,0,1.69,1.75c1.48,0,6.62-5.87,10.4-12.28a1.62,1.62,0,0,1-.41-1.08c0-1.36,2.84-4.39,2.84-5.54a1.51,1.51,0,0,0-1.69-1.42C228.84,42.2,219.52,55.17,219.52,60.84Z"
          style="fill:#fff"/>
    <path d="M244.91,55c0-7,8.37-17.75,13.23-17.75,3.24,0,8.3,3,8.3,5.87,0,2.23-2,6.68-5.6,10.13-2.84,2.76-8.64,2.9-8.64,2.9a9.42,9.42,0,0,0-.14,1.55,4.48,4.48,0,0,0,4.46,4.59c4.59,0,9.92-6.14,12.69-10,1.14-1.62,1.48-2.16,1.82-2.16.54,0,1.62,1.62,1.62,2.63s-.27,1.83-1.69,3.65c-2.56,3.37-8.17,9.72-15.25,9.72A11.16,11.16,0,0,1,244.91,55Zm16.94-11.27c0-.41-.34-.68-.88-.68-1.55,0-8.1,8.17-8.1,9.93C255.5,53,261.85,45.92,261.85,43.76Z"
          style="fill:#fff"/>
    <path d="M351.7,52.33c1.15-1.62,1.48-2.16,1.82-2.16.54,0,1.62,1.62,1.62,2.63s-.27,1.83-1.69,3.65c-2.56,3.37-10,12.89-16.67,12.89-4.86,0-9.11-4.72-9.11-9.52,0-10.33,13.43-26.86,13.43-30.1,0-.88-.4-1.22-.88-1.22-4.18,0-16.33,13-22.21,21.87s-6.41,13.77-8,13.77-5.27-2.49-5.27-5.26,2.7-9.05,8-18.9c5.73-10.67,10.46-17.35,10.46-20.66,0-1.28-.41-1.69-1.35-1.69-4.19,0-21,21.33-28.15,33.22-4,6.61-6.75,11.47-8.1,14.78-1.22,2.9-1.62,3.64-2.63,3.64s-5.54-2-5.54-4.11,4.73-12.42,11.41-24.85,9.92-19.57,9.92-21.12a1.59,1.59,0,0,0-1.62-1.62c-4.52,0-15,13.5-15,13.5a3.41,3.41,0,0,1,1.35,2.83c0,1-1.69,3-4,5.81-3.84,4.65-4.65,6.41-6.14,6.41s-4.39-3.38-4.39-4.59c.07-3.58,18-27.21,27.41-27.21,4.93,0,8.17,5,8.17,7.7,0,5-4.39,13.16-4.39,13.16s14.24-20.86,21.33-20.86A8.39,8.39,0,0,1,330,22.16c0,4.92-7.09,16.6-7.63,17.48,1-1.42,11.27-15.12,17.82-15.12,4.39,0,7.56,4.32,7.56,7.36,0,5.94-11.67,19.77-11.67,29.43,0,1.69.67,3.1,2.49,3.1C342.86,64.41,348.93,56.18,351.7,52.33Z"
          style="fill:#fff"/>
    <path d="M351.16,55c0-7,8.37-17.75,13.23-17.75,3.24,0,8.31,3,8.31,5.87,0,2.23-2,6.68-5.61,10.13-2.83,2.76-8.64,2.9-8.64,2.9a10.13,10.13,0,0,0-.13,1.55,4.48,4.48,0,0,0,4.45,4.59c4.59,0,9.93-6.14,12.69-10,1.15-1.62,1.49-2.16,1.83-2.16.54,0,1.62,1.62,1.62,2.63s-.27,1.83-1.69,3.65c-2.57,3.37-8.17,9.72-15.26,9.72A11.16,11.16,0,0,1,351.16,55ZM368.1,43.76c0-.41-.33-.68-.87-.68-1.56,0-8.1,8.17-8.1,9.93C361.76,53,368.1,45.92,368.1,43.76Z"
          style="fill:#fff"/>
    <path d="M417.05,55.17a17.37,17.37,0,0,1,.6-5.47c-.6.81-14.91,19.57-23.42,19.57-5.53,0-10.26-4.45-10.26-9.18,0-11.34,19.64-31.32,19.64-40.77,0-1.21-.67-1.82-2-1.82-6.41,0-13.77,10.8-13.77,10.8a2.85,2.85,0,0,1,1.35,2.16c0,1.35-2.37,3.78-4.26,6.61-2.09,3.11-3.51,5.88-4.65,5.88s-4.39-2.5-4.39-4.39c0-4.59,13.16-24.17,25.38-24.17,5.6,0,9.18,5.4,9.18,10.13,0,8-18.22,28.22-18.22,38.27,0,1.35.81,2.23,1.75,2.23,4.25,0,18.56-11.88,26-24.84,6.28-11,9.05-17,10.33-19.64.47-1,.34-2.1,1.75-2.1,1.08,0,5.74,2.37,5.74,4.32s-12.89,20-12.89,34.16c0,2,1.28,4,3.31,4,3.71,0,8.3-4.79,11.07-8.64,1.14-1.62,1.48-2.16,1.82-2.16.54,0,1.62,1.62,1.62,2.63s-.27,1.83-1.69,3.65c-2.56,3.37-8.17,9.52-12.42,9.52C424.54,66,417.05,62.05,417.05,55.17Z"
          style="fill:#fff"/>
    <path d="M446.62,34.37c.67,0,5.06,1.76,5.06,2.77s-2.63,7.16-3.11,8.17c.48-.68,5.67-8.24,9.12-8.24a7.48,7.48,0,0,1,7.22,7.56c0,8-7.36,21.27-15.46,21.27-3.31,0-6.75-2.84-6.75-2.84a78.31,78.31,0,0,0-5.06,16.41c-.2,1-.61,1.28-1.49,1.28-1.89,0-4.59-1.82-4.59-3.85s2.36-11.27,6.55-22.07,7.36-18.7,7.36-19.71C445.47,34.64,445.94,34.37,446.62,34.37ZM448.24,51A41.69,41.69,0,0,0,444,59.42,5.11,5.11,0,0,0,447.7,61c4.05,0,10.93-13.1,10.93-19.92A1.12,1.12,0,0,0,457.55,40C456.27,40,451.48,45.78,448.24,51Z"
          style="fill:#fff"/>
    <path d="M42.5,87.34a11.76,11.76,0,0,1-5.24-1.22L15.75,75.41A10,10,0,0,1,10,66.49V26.69a3.64,3.64,0,0,1,3.42-3.63l2-.12c1.68-.1,2.6-1,2.6-1.5l-.25-2.2a3.64,3.64,0,0,1,3.22-4l19.12-2.07a22.37,22.37,0,0,1,4.77,0l20.29,2.2a3.65,3.65,0,0,1,3.22,4l-.2,2.1c0,.41.71,1.23,2.07,1.48L72,23.2a3.64,3.64,0,0,1,3,3.58V66.49a10,10,0,0,1-5.75,8.93L47.74,86.12A11.76,11.76,0,0,1,42.5,87.34ZM17.27,30V66.49A2.81,2.81,0,0,0,19,68.9L40.5,79.62a4.72,4.72,0,0,0,4,0L66,68.91a2.84,2.84,0,0,0,1.72-2.42V29.74A9.17,9.17,0,0,1,61,22.19L44.1,20.36a14.18,14.18,0,0,0-3.19,0L25.28,22.05C25,26,21.65,29.23,17.27,30Z"
          style="fill:#00354c"/>
    <path d="M42.5,85.79A10.28,10.28,0,0,1,38,84.73L16.45,74a8.47,8.47,0,0,1-4.89-7.53V26.69a2.08,2.08,0,0,1,1.95-2.07l2-.12c2.25-.13,4.07-1.51,4.07-3.06,0-.08,0-.16,0-.24l-.25-2.14a2.08,2.08,0,0,1,1.84-2.31l19.12-2.07a20.5,20.5,0,0,1,4.43,0L65,16.88a2.07,2.07,0,0,1,1.84,2.27l-.2,2.1a1.28,1.28,0,0,0,0,.19c0,1.35,1.44,2.62,3.35,3l1.75.32a2.07,2.07,0,0,1,1.7,2.05V66.49A8.48,8.48,0,0,1,68.55,74L47,84.73A10.2,10.2,0,0,1,42.5,85.79ZM15.71,28.65V66.49A4.35,4.35,0,0,0,18.3,70.3L39.81,81a6.26,6.26,0,0,0,5.38,0L66.7,70.3a4.35,4.35,0,0,0,2.59-3.81v-38h-.05c-3.92-.72-6.76-3.68-6.76-7.06,0-.18,0-.37,0-.58v-.07l-18.25-2a16,16,0,0,0-3.53,0l-17,1.85v.06a6.09,6.09,0,0,1,.05.72c0,3.78-3.51,6.94-8,7.21Z"
          style="fill:#fff"/>
    <path d="M42.5,83.71a8.12,8.12,0,0,1-3.62-.84L17.37,72.16a6.43,6.43,0,0,1-3.73-5.67V26.69l2-.12c3.37-.2,6-2.45,6-5.13a4.12,4.12,0,0,0,0-.48l-.25-2.14,19.13-2.08a18.62,18.62,0,0,1,2-.1,16.36,16.36,0,0,1,2,.11L64.78,19l-.2,2.1c0,.14,0,.27,0,.39,0,2.37,2.12,4.48,5,5l1.75.32V66.49a6.43,6.43,0,0,1-3.73,5.67L46.12,82.87A8.12,8.12,0,0,1,42.5,83.71Z"
          style="fill:#e1f5f9"/>
    <path d="M42.5,84.23a8.58,8.58,0,0,1-3.85-.9L17.14,72.62a6.92,6.92,0,0,1-4-6.13V26.69a.51.51,0,0,1,.49-.51l2-.13c3.1-.18,5.53-2.21,5.53-4.61a3.19,3.19,0,0,0,0-.42l-.25-2.14a.6.6,0,0,1,.11-.39.61.61,0,0,1,.35-.19l19.13-2.07a18.64,18.64,0,0,1,4.09,0l20.29,2.2a.52.52,0,0,1,.46.57l-.2,2.1a2.12,2.12,0,0,0,0,.34c0,2.12,1.94,4,4.62,4.51l1.76.32a.52.52,0,0,1,.42.51V66.49a7,7,0,0,1-4,6.14L46.35,83.34A8.71,8.71,0,0,1,42.5,84.23Zm-28.34-57V66.49a5.89,5.89,0,0,0,3.45,5.2L39.11,82.4a7.86,7.86,0,0,0,6.78,0L67.4,71.7a5.93,5.93,0,0,0,3.45-5.21V27.21L69.52,27C66.34,26.39,64,24.06,64,21.44c0-.13,0-.28,0-.44l.16-1.59L44.44,17.26a17.88,17.88,0,0,0-3.87,0l-18.6,2,.19,1.62a5.17,5.17,0,0,1,0,.54c0,2.95-2.86,5.43-6.51,5.65Z"
          style="fill:#00354c"/>
    <circle cx="42.12" cy="48.34" r="19.03" style="fill:#00557a"/>
    <path d="M34.47,73.94a1.32,1.32,0,0,1-1.32-1.18l-1.8-16a.29.29,0,0,0-.15-.22L17,48.93a1.32,1.32,0,0,1,.08-2.37L31.74,39.9a.26.26,0,0,0,.16-.21l2.84-15.86a1.32,1.32,0,0,1,1.31-1.1,1.3,1.3,0,0,1,1,.44L47.89,35.06a.28.28,0,0,0,.21.1L64.1,33h.19a1.32,1.32,0,0,1,1.14,2l-8,14a.27.27,0,0,0,0,.26l7,14.5a1.33,1.33,0,0,1-1.19,1.91,1.24,1.24,0,0,1-.27,0L47.25,62.33h0a.32.32,0,0,0-.22.07L35.38,73.57A1.3,1.3,0,0,1,34.47,73.94Z"
          style="fill:#ffcc01"/>
    <path d="M36.05,23.25a.81.81,0,0,1,.59.27L47.5,35.42a.85.85,0,0,0,.6.26h.11l16-2.21h.12a.8.8,0,0,1,.69,1.2l-8,14a.8.8,0,0,0,0,.75l7,14.5a.81.81,0,0,1-.72,1.16l-.17,0L47.36,61.82l-.16,0a.79.79,0,0,0-.56.23L35,73.2a.81.81,0,0,1-1.36-.49l-1.8-16a.8.8,0,0,0-.42-.62l-14.21-7.6A.8.8,0,0,1,17.28,47L32,40.37a.77.77,0,0,0,.46-.59l2.84-15.86a.8.8,0,0,1,.8-.67m0-1h0a1.84,1.84,0,0,0-1.82,1.53L31.41,39.48l-14.56,6.6a1.85,1.85,0,0,0-.11,3.31l14.11,7.54,1.78,15.89A1.85,1.85,0,0,0,35.74,74L47.27,62.86l15.66,3.22a2.45,2.45,0,0,0,.38,0A1.84,1.84,0,0,0,65,63.47L58,49.08l7.89-13.91a1.82,1.82,0,0,0,0-1.83,1.84,1.84,0,0,0-1.59-.92,1.14,1.14,0,0,0-.26,0L48.19,34.62,37.4,22.82a1.8,1.8,0,0,0-1.35-.61Z"
          style="fill:#a57e02"/>
    <path d="M36.87,26.92,34.19,40.51a2.11,2.11,0,0,1-1.32,1.57L20,47.13l14.19-3.4a2.13,2.13,0,0,0,1.63-1.91Z"
          style="fill:#ffdb53"/>
    <path d="M33.45,70.86l.21,1.85A.81.81,0,0,0,35,73.2L46.64,62a.83.83,0,0,1,.72-.21l15.78,3.24A.81.81,0,0,0,64,63.92l-7-14.5a.8.8,0,0,1,0-.75l8-14a.81.81,0,0,0-.81-1.2l-5.35.74C54.83,51.5,44.4,63,33.45,70.86Z"
          style="fill:#fcbd11"/>
</svg>